<svg width='200' height='200' fill="#FFF" xmlns:dc="http://purl.org/dc/elements/1.1/" xmlns:cc="http://creativecommons.org/ns#" xmlns:rdf="http://www.w3.org/1999/02/22-rdf-syntax-ns#" xmlns:svg="http://www.w3.org/2000/svg" xmlns="http://www.w3.org/2000/svg" xmlns:sodipodi="http://sodipodi.sourceforge.net/DTD/sodipodi-0.dtd" xmlns:inkscape="http://www.inkscape.org/namespaces/inkscape" version="1.1" x="0px" y="0px" viewBox="0 0 100 100"><g transform="translate(0,-952.36218)"><path style="text-indent:0;text-transform:none;direction:ltr;block-progression:tb;baseline-shift:baseline;color:#000000;enable-background:accumulate;" d="m 8,966.36353 c -1.0471694,10e-5 -1.9998961,0.95281 -2,1.99997 l 0,67.9987 c 7.25e-5,1.0472 0.9528106,1.9999 2,2 l 84,0 c 1.047189,-10e-5 1.999927,-0.9528 2,-2 l 0,-67.9987 c 0.0043,-0.9875 -0.829332,-1.90731 -1.8125,-1.99997 -0.06245,-0.003 -84.1875,0 -84.1875,0 z m 2,3.99993 80,0 0,40.18674 c -6.023519,-8.6735 -14.305956,-14.18723 -23.59375,-14.18723 -10.901565,0 -20.385075,7.57673 -26.5,18.96833 -4.353452,-4.3236 -9.706742,-6.9686 -15.5,-6.9686 -5.320347,0 -10.25275,2.2275 -14.40625,5.9374 z m 18,5.99988 c -6.603727,0 -12,5.39617 -12,11.99978 0,6.60359 5.396273,11.99978 12,11.99978 6.603727,0 12,-5.39619 12,-11.99978 0,-6.60361 -5.396273,-11.99978 -12,-11.99978 z m 0,3.99993 c 4.441969,0 8,3.55796 8,7.99985 0,4.44187 -3.558031,7.99985 -8,7.99985 -4.441969,0 -8,-3.55798 -8,-7.99985 0,-4.44189 3.558031,-7.99985 8,-7.99985 z m 38.40625,19.99963 c 9.32674,0 17.868345,6.7524 23.5,17.8747 0.02795,0.064 0.05926,0.1267 0.09375,0.1875 l 0,15.9372 -39.6875,0 c -1.660396,-6.082 -4.264093,-11.43 -7.5625,-15.7185 5.619785,-11.3172 14.235902,-18.2809 23.65625,-18.2809 z m -42,11.9998 c 4.907862,0 9.501297,2.3405 13.4375,6.5936 3.519927,3.8032 6.420848,9.1343 8.28125,15.406 l -36.125,0 0,-14.3123 c 4.118349,-4.9287 9.098661,-7.6873 14.40625,-7.6873 z" fill="#FFF" fill-opacity="1" stroke="none" marker="none" visibility="visible" display="inline" overflow="visible"></path></g></svg>